# xmcd
#
# Track frame offsets:
#	150
#	25330
#	58172
#	64164
#	88921
#	122884
#	128824
#	133486
#	162809
#	183239
#	184881
#	224826
#	254481
#	282346
#	283998
#
# Disc length: 4429 seconds
#
# Revision: 1
# Processed by: cddbd v1.5.2PL0 Copyright (c) Steve Scherf et al.
# Submitted via: EasyCDDAExtractor 10.0.6.1
#
DISCID=fe114b0f
DTITLE=Virgin Steele - Invictus
DYEAR=1999
DGENRE=Rock and Roll
TTITLE0=Blood of Vengeance
TTITLE1=Invictus
TTITLE2=Mind, Body, Spirit
TTITLE3=In the Arms of the Death God [Instrumental]
TTITLE4=Through Blood and Fire
TTITLE5=Sword of the Gods
TTITLE6=God of Our Sorrows
TTITLE7=Vow of Honour
TTITLE8=Defiance
TTITLE9=Dust from the Burning
TTITLE10=Amaranth [Instrumental]
TTITLE11=Whisper of Death
TTITLE12=Dominion Day
TTITLE13=Shadow of Fear
TTITLE14=Theme: Marriage of Heaven and Hell [Instrumental]
EXTD=
EXTT0=
EXTT1=
EXTT2=
EXTT3=
EXTT4=
EXTT5=
EXTT6=
EXTT7=
EXTT8=
EXTT9=
EXTT10=
EXTT11=
EXTT12=
EXTT13=
EXTT14=
PLAYORDER=
